<?xml version="1.0" encoding="UTF-8"?>
<svg id="Capa_1" data-name="Capa 1" xmlns="http://www.w3.org/2000/svg" viewBox="0 0 948 948">
  <defs>
    <style>
      .cls-1 {
        fill: #fff;
      }
    </style>
  </defs>
  <path class="cls-1" d="m442.2,91.59c-25.74,1.71-47.69,8.29-66.85,19.99l-4.3,2.66-.06,4.11c-.06,4.81-.06,51.29,0,54.08l.06,1.9,31.12-.13c17.14-.06,31.81-.13,32.51-.13,1.33-.06,1.39-.32,1.64-11.64.25-9.87.51-12.02,1.64-15.05,2.21-5.57,6.58-8.79,12.02-8.79,3.16,0,6.58,1.2,6.01,2.09-.25.38-.06.44.38.19.95-.63,3.35,1.45,2.78,2.34-.19.38-.06.44.32.19.89-.51,2.28,1.9,1.64,2.91-.32.44-.19.51.38.19.63-.38.76-.25.44.57-.25.57-.19.89.13.7.95-.57,2.15,6.58,1.77,10.69-1.2,12.33-5.76,16.51-31.05,28.33-27.58,12.9-40.16,20.24-48.89,28.59-9.87,9.36-14.8,19.67-16.63,34.85-.76,5.95-1.33,60.78-.76,64.95l.25,1.77h162.42v-69.57h-65.08l-.32,2.02c-.19,1.14-.51,3.92-.7,6.2-.57,6.26-2.4,9.42-6.83,11.64-3.48,1.71-4.3,1.83-13.16,2.15l-9.42.32v-3.35c0-4.93,1.14-7.97,4.36-11.57,4.17-4.62,9.68-7.97,29.92-18.15,27.83-14.04,36.62-18.91,43.45-24.1,5.06-3.79,10.37-9.74,13.91-15.56,10.5-17.14,11-51.1,1.08-71.97-8.54-17.96-25.36-28.59-51.48-32.32-6.39-.89-25.8-1.58-32.7-1.08Z"/>
  <path class="cls-1" d="m636.24,91.78c-23.72,1.9-45.16,8.6-62.99,19.73-3.42,2.15-6.39,4.17-6.58,4.49-.19.25-.32,5.95-.25,12.52,0,9.3-.13,11.89-.76,11.57-.57-.32-.57-.25.06.44.51.57.76,3.04.76,7.4,0,5.06-.19,6.39-.76,6.07-.63-.38-.63-.32-.06.44.51.63.76,3.35.7,7.91v6.89l33.27.19,33.27.13v-8.35c0-16.38,3.16-22.26,11.95-22.14,3.79,0,8.66,1.58,8.03,2.59-.19.32.06.89.57,1.33s.95.57.95.32.44-.13.95.32c.57.44.89,1.2.7,1.71s-.13.76.19.57c.51-.38,1.39,1.39,2.34,4.62.63,2.4.44,13.91-.32,17.33-1.64,7.08-4.74,10.31-11.76,12.14-2.85.7-7.27.95-18.78.95h-15.05v12.78c0,7.08-.06,16.95-.19,22.01l-.13,9.17,13.6-.13c18.53-.13,24.03.95,28.97,5.63,1.96,1.96,2.78,3.61,1.26,2.66-.44-.25-.51-.19-.25.32.25.38.7.57.95.38.95-.57,2.72,5.25,2.28,7.4-.32,1.64-.25,1.9.32,1.14,1.2-1.58.38,16.7-.89,20.74-1.33,4.05-4.68,8.03-7.78,9.04-3.29,1.08-9.93.44-12.02-1.08-2.4-1.83-4.43-5.57-5.06-9.36-.25-1.77-.51-3.54-.57-3.86-.06-.38-.13-5.38-.19-11.19l-.06-10.56-33.01.13-33.08.13-.38,7.27c-.19,3.98-.38,6.89-.44,6.39s-.32-.7-.51-.51c-.25.25-.13.76.25,1.2,1.01,1.26,1.01,27.26,0,26.69-.63-.38-.7-.25,0,.44.51.57.76,3.04.76,7.4,0,5.06-.19,6.39-.76,6.07-.63-.38-.57-.19,0,.51.51.7.76,2.15.57,3.92-.13,1.58-.06,2.78.13,2.72.76-.19,3.23,1.52,2.91,2.09-.19.32,0,.76.38,1.01.51.25.57.19.32-.25-.7-1.14-.25-.95,4.87,2.15,2.66,1.58,7.72,4.17,11.32,5.76s6.64,3.16,6.7,3.48c.13.25.51.38.82.13.32-.19,2.91.38,5.82,1.26,13.16,4.11,28.97,6.13,47.88,6.2,14.74.06,24.73-.82,33.84-2.97,15.05-3.54,24.29-8.29,32.57-16.7,7.91-8.03,11.95-16,14.86-29.16,1.39-6.45,1.96-24.6,1.01-31.94-2.53-18.97-12.9-33.01-28.46-38.58-1.96-.7-2.09-.89-1.01-1.26,6.01-2.21,11.13-5.44,15.56-9.8,8.29-8.16,11.7-17.08,12.4-32.26,1.58-37-17.71-58.95-56.99-64.83-8.29-1.2-25.55-1.71-34.98-.95Zm18.15,50.6c0,.32-.13.63-.25.63-.19,0-.51-.32-.7-.63-.19-.38-.06-.63.25-.63.38,0,.7.25.7.63Z"/>
  <path class="cls-1" d="m230.01,113.73v19.48l2.21,1.45c2.02,1.26,3.29,3.35,1.45,2.28-.51-.25-.63-.19-.32.13s.89.57,1.26.57c.44,0,.7.51.7,1.14-.06.57.13.95.38.76.7-.44,1.39,2.72.89,3.61-.32.44-.13.51.38.19.57-.38.76.06.51,1.77-.13,1.26,0,2.09.25,1.96.32-.19.51,26.06.51,58.38,0,61.22-.06,61.86-2.72,66.98-.57,1.08-2.02,2.59-3.23,3.48l-2.28,1.52v39.53h85.26l.32-1.33c.19-.76.38-9.68.38-19.8l.06-18.4-2.59-1.77c-1.64-1.14-3.1-2.85-3.92-4.74l-1.39-2.97-.19-86.84-.13-86.77h-77.79v19.42Z"/>
  <path class="cls-1" d="m666.1,360.01c-39.85,2.21-59.45,18.09-65.14,52.62-1.01,6.2-2.28,22.58-1.77,23.34.13.32,0,.51-.25.51-.32,0-.51.95-.38,2.02.13,1.14.32,21.12.44,44.46.19,23.27.44,43.39.63,44.59.89,5.82,1.9,13.16,1.9,14.67.06.89.19,1.52.38,1.39.44-.51,2.47,7.59,2.21,8.92-.19.7-.13.89.06.38.51-1.01,4.87,7.84,4.81,9.61,0,.57.19.95.44.82.7-.44,3.35,3.29,2.91,4.05-.25.38-.06.57.44.51.44-.13.76.19.63.63-.06.51.13.7.38.51.76-.44,2.78,1.77,2.21,2.47-.32.25-.19.32.19.13.89-.51,3.61,2.28,2.97,3.04-.32.25-.19.32.19.13.95-.51,3.54,1.39,3.04,2.21-.25.44-.13.51.32.25.44-.32,1.77.19,3.1,1.01,1.26.89,3.98,2.21,5.95,3.04s3.42,1.77,3.23,2.09c-.19.38-.06.44.32.19.38-.19,2.78.19,5.31.89,10.37,2.91,18.47,3.86,35.54,4.24,29.54.63,48.07-2.66,61.92-11,14.42-8.73,22.26-22.52,25.36-44.78,1.08-7.59,1.26-28.9.38-36.37-4.36-35.61-22.33-53-56.1-54.2-13.53-.51-25.55,1.01-37.38,4.81l-2.15.63.32-15.31c.32-17.01.63-18.85,4.24-22.64,1.71-1.83,2.91-2.47,5.25-2.78,5.12-.76,9.04-.13,11.7,2.02,3.42,2.78,4.62,6.58,5.12,15.69l.38,7.59,32.13.19,32.07.13v-49.02l-4.62-2.91c-24.79-15.87-53.95-22.71-88.67-20.74Zm23.02,127.25c1.77,1.2,2.59,2.09,2.34,2.72-.19.51-.13.82.19.63.76-.51,2.21,3.16,1.58,4.11-.25.44-.19.63.19.38,1.08-.7,1.45,3.67,1.45,17.71.06,17.27-.38,20.3-3.54,24.67-3.04,4.11-11.89,5.25-16.89,2.15-4.93-3.04-6.13-8.41-6.13-26.88s1.26-23.27,6.96-26.18c4.05-2.09,10.12-1.77,13.85.7Z"/>
  <path class="cls-1" d="m299.77,362.99l-39.4.13-21.57,32.45c-11.89,17.77-29.16,43.58-38.39,57.3l-16.76,24.92.06,24.73c0,13.6.06,25.68.06,26.75l.06,2.09h89.81v1.64c0,.89-.25,1.45-.51,1.26-.32-.19-.44.51-.25,1.45.13,1.01-.32,2.91-1.08,4.36-1.08,2.09-2.09,2.97-5.38,4.55l-4.11,1.96.13,19.42.13,19.42,41.87.13c23.09.06,42.5-.06,43.2-.25,1.26-.32,1.26-.82,1.26-19.86v-19.54l-1.71-.7c-3.73-1.39-6.13-5.19-6.89-10.63l-.44-3.23h14.61l.19-1.77c.13-.95.25-11.13.25-22.58l-.06-20.87-7.4-.19-7.4-.19v-61.29c0-33.71-.19-61.35-.44-61.48-.32-.13-18.22-.13-39.85,0Zm-24.54,95v27.83h-37l1.39-2.21c7.97-12.4,35.04-53.38,35.29-53.44.19,0,.32,12.52.32,27.83Z"/>
  <path class="cls-1" d="m398.44,365.77c-.32,1.52-.38,2.78-.19,2.91.44.19.25,5.76-.25,6.26-.19.19-.06.82.25,1.39.32.63.32,1.45,0,1.9-.25.51-.25,1.71,0,2.72.38,1.2.32,1.64-.13,1.39s-.44,0-.06.76c.32.7.51,3.04.38,5.31-.19,4.55-.19,5.95.06,10.12.13,1.58-.13,3.23-.51,3.73-.51.7-.51.82.06.51.57-.38.7.32.44,2.85-.19,1.83-.51,3.54-.7,3.79-.13.32,0,.51.25.51.32,0,.44,1.33.38,2.97-.13,1.71-.25,3.42-.19,3.79v5.06c0,1.33.06,3.48.19,4.81.06,1.33-.06,2.72-.32,3.16-.25.38-.13,1.08.19,1.52.44.51.44,1.14,0,1.96-.38.7-.51,1.39-.32,1.58.63.63.63,7.72-.06,8.6-.44.7-.44.82.13.51.51-.32.7.06.57,1.26-.13,1.01-.25,2.59-.32,3.54-.06,1.2-.32,1.64-.82,1.39-.44-.25-.38-.06.13.44.7.57.95,1.71.82,3.67-.13,1.58-.19,3.23-.19,3.61v5.06c0,1.33.06,3.48.13,4.81.13,1.33,0,2.72-.25,3.16-.25.38-.13,1.08.19,1.52.44.51.44,1.14,0,1.96-.38.7-.51,1.39-.32,1.58.63.63.63,7.72-.06,8.6-.51.76-.44.82.25.38.7-.38.82-.25.51.51-.19.63-.19,1.08.06,1.08,1.01.06,54.08.06,59.71,0h6.13l1.9-2.78c4.43-6.39,12.33-7.78,18.59-3.35,1.08.7,1.64,1.58,1.45,2.15-.19.51-.13.7.25.51.82-.51,2.21,2.47,3.1,6.51.44,2.02.7,10.44.7,21.12,0,20.3-.51,23.78-4.17,27.39-4.3,4.3-12.33,4.17-16.82-.25-3.67-3.73-4.87-10.06-4.93-26.18v-9.93h-32.89c-28.78,0-32.89.13-32.95.95-.06.95-.25,1.77-.57,2.66-.06.32-.06.76,0,1.14.38,1.64.32,4.87-.13,5.57-.25.38-.13,1.08.19,1.52.44.51.44,1.14,0,1.96-.38.7-.51,1.39-.32,1.58.63.63.63,7.72-.06,8.6-.44.7-.44.82.13.51.51-.32.7.06.57,1.26-.13,1.01-.25,2.59-.32,3.54-.06,1.2-.32,1.64-.82,1.39-.44-.25-.38-.06.13.44,1.08.89,1.26,5.31.32,6.83-.32.51-.25.7.19.38.44-.25.63.19.51,1.33-.13,1.01-.32,1.77-.38,1.77s-.13.95-.19,2.09c-.06,1.08,0,2.02.25,2.02.19,0,.19,1.33.13,2.97-.13,1.71-.25,3.42-.19,3.79,0,1.64,0,2.47-.06,4.62-.13,3.98,0,4.24,3.54,6.64,1.9,1.33,3.29,2.66,3.1,2.91-.19.32.19.38.76.13.76-.25.95-.19.63.38-.25.38-.25.63.06.57.95-.25,3.35.82,3.04,1.39-.19.32,0,.76.38,1.01.51.32.57.19.25-.38-.57-.95-1.08-1.2,8.29,3.61,13.16,6.7,26.5,10.63,45.16,13.16,5,.7,24.73.82,31.62.25,16.95-1.45,30.99-5.82,40.67-12.52,7.46-5.12,14.67-14.48,18.09-23.4,4.68-12.08,6.39-23.84,6.39-43.58,0-14.48-.51-20.3-2.59-31.05-4.81-24.73-17.01-37.76-40.23-42.88-3.86-.89-8.03-1.14-18.85-1.14-12.33,0-14.67.19-20.56,1.45-3.67.82-8.03,2.09-9.8,2.72-1.71.63-3.23,1.2-3.29,1.2-.13,0-.19-6.83-.19-15.12v-15.18l7.08.32c13.03.44,15.75,2.4,17.84,12.97l.38,1.64,31.43-.13c17.33-.06,32-.19,32.64-.25,1.01-.06,1.08-1.96,1.08-30.11v-30.04h-156.16l-.51,2.66Z"/>
  <path class="cls-1" d="m690.83,411.37c.19.63.57.95.76.76s0-.7-.44-1.14c-.63-.57-.7-.51-.32.38Z"/>
  <path class="cls-1" d="m483.63,412.07c0,.13.44.57.95,1.01.57.44.95.51.95.13,0-.32-.44-.76-.95-1.01-.51-.19-.95-.25-.95-.13Z"/>
  <path class="cls-1" d="m446,628.5c-28.9,2.28-45.54,8.6-56.8,21.76-7.53,8.73-11.13,18.59-12.59,34.03-1.08,11.95.51,26.18,3.61,32.76.57,1.2.82,2.53.57,2.97-.25.38-.25.57.06.32.7-.7,2.4,1.83,1.83,2.78-.25.44-.19.51.25.25.63-.38,2.28,1.71,2.34,2.91,0,.32.19.44.44.32.76-.25,4.87,4.17,4.49,4.81-.19.38-.06.44.32.19.89-.57,7.27,3.67,6.58,4.36-.25.32-.13.32.32.06.38-.19,1.77.06,2.97.7l2.28,1.08-4.74,2.53c-13.72,7.46-20.43,16.63-24.16,32.95-.89,3.98-1.14,7.59-1.08,17.08.06,12.65,1.01,19.04,4.05,27.01.95,2.53,1.08,3.42.44,3.79-.51.32-.44.51.32.51,1.01,0,2.21,2.21,1.83,3.48-.06.32.06.44.32.19.57-.57,2.97,3.16,2.53,3.86-.19.25.51,1.14,1.58,1.9,1.2.89,1.77,1.77,1.58,2.34-.19.51-.13.82.19.63.51-.38,2.47,1.39,2.53,2.28.06.32.25.51.57.57.95.06,2.59,2.02,2.21,2.66-.19.32-.13.44.25.25.32-.19,1.71.63,3.1,1.9,1.33,1.26,2.72,2.28,2.97,2.21.89-.25,4.87,2.78,4.36,3.35-.25.32-.13.32.25.13.44-.25,2.4.32,4.36,1.2,10.18,4.43,22.07,7.34,34.47,8.35,9.17.7,31.81.44,38.58-.44,16.63-2.15,30.61-6.77,40.04-13.28,17.14-11.76,25.49-32,24.22-58.63-1.01-21.95-9.23-36.43-25.3-44.53l-4.62-2.28,4.74-2.53c2.72-1.39,6.77-4.36,9.42-6.83,3.73-3.48,5.12-5.31,7.15-9.49,3.73-7.84,4.74-13.35,4.74-25.99-.06-5.95-.44-13.03-.89-15.81-4.62-27.96-22.39-42.94-56.29-47.44-7.08-.95-29.92-1.71-36.43-1.2Zm17.9,47.75c.82.32,1.26.82,1.08,1.2-.19.32,0,.44.51.25,1.2-.44,3.1,2.28,4.43,6.32,1.45,4.17,2.02,14.8,1.14,20.87-1.39,9.87-4.24,13.16-11.51,13.53-5.31.32-8.22-.63-10.63-3.35-2.47-2.85-3.79-7.46-4.24-14.86-.7-10.94,1.52-20.05,5.57-23.02,2.85-2.02,9.49-2.47,13.66-.95Zm.82,85.57c1.64.89,2.72,1.9,2.72,2.47-.06.57.13.95.32.76.57-.32,2.59,3.73,2.59,5.12,0,.57-.32.76-.76.51s-.51-.19-.25.32c.25.38.7.57.95.38.7-.38,1.33,6.2,1.33,14.17,0,7.53-.57,13.47-1.26,13.03-.25-.13-.32.38-.19,1.14.38,2.02-2.34,6.83-4.68,8.41-3.98,2.66-10.69,2.59-14.8-.06-4.81-3.1-6.32-9.49-6.01-25.61.25-13.79,1.83-18.59,6.83-21.06,3.29-1.64,9.8-1.39,13.22.44Z"/>
  <path class="cls-1" d="m466.87,680.23c.63.89,1.2,1.64,1.39,1.64.44,0-1.08-2.47-1.77-2.91-.38-.19-.19.32.38,1.26Z"/>
  <path class="cls-1" d="m640.67,628.75c-48.13,3.79-66.66,24.48-66.6,74.38,0,16.76,1.52,28.59,5,38.52,1.52,4.3,1.64,5,.57,4.36-.44-.25-.51-.19-.25.32.25.38.76.51,1.14.32.51-.32.57-.06.32.63-.25.57-.19.95.06.76.76-.44,2.78,3.98,2.28,4.81-.25.38-.13.51.25.25.7-.38,3.48,3.61,3.48,5.06,0,.44.25.7.51.51.63-.38,3.48,3.48,3.23,4.3-.06.32.06.44.38.25.76-.44,3.42,2.4,2.85,3.1-.32.25-.13.32.32.06,1.01-.57,2.78.76,2.21,1.71-.19.38-.06.44.32.19.89-.51,6.58,3.04,5.95,3.73-.25.32-.13.32.25.13.44-.25,2.28.25,4.11,1.08,8.35,3.67,18.09,5.06,32.19,4.62,12.02-.38,19.23-1.77,26.82-5.12,2.02-.89,3.86-1.64,4.05-1.64.13,0,.13,6.2-.06,13.72-.38,14.55-1.2,19.35-3.98,22.39-2.72,2.97-7.46,4.17-12.65,3.1-6.64-1.39-9.42-6.07-10.18-17.27l-.38-5.5h-63.69l-.06,2.02c0,1.14-.06,5.38-.06,9.36,0,4.68-.32,7.46-.76,7.72-.51.38-.51.51,0,.51.57,0,.76,3.35.76,11.83.06,6.58.06,13.03.06,14.42.06,2.4.25,2.72,3.16,4.43,1.77,1.01,2.97,2.09,2.78,2.4-.19.38-.06.44.32.19.44-.25,2.78.63,5.31,2.02,2.53,1.33,5.95,2.97,7.59,3.61,1.71.63,2.85,1.39,2.59,1.77-.19.32-.13.44.25.25.32-.19,4.43.89,9.11,2.4,7.53,2.53,10.31,3.23,17.33,4.43,1.08.19,2.34.51,2.85.63,6.58,1.9,36.11,2.91,48.38,1.64,33.33-3.54,51.17-18.03,57.55-46.8,3.04-13.47,3.16-16.82,3.1-69,0-46.68-.06-49.46-1.39-57.93-5.12-33.96-20.93-49.08-56.1-53.7-9.17-1.2-31.5-1.71-41.24-.95Zm22.77,48.83c1.58.76,2.34,1.52,2.09,2.09-.19.51,0,1.08.38,1.33.44.25.51.19.25-.25s-.32-.76-.13-.76c.7,0,2.34,3.92,2.02,4.81-.19.51-.13.76.19.57,1.14-.7,1.64,5.82,1.64,20.87-.06,12.46-.25,15.81-1.14,18.78-1.96,6.51-5.63,9.36-12.08,9.36-4.3,0-6.45-.76-9.11-3.35-3.42-3.29-4.05-6.51-4.36-22.39-.44-20.37.76-27.2,5.63-30.74,3.42-2.53,9.99-2.66,14.61-.32Z"/>
  <path class="cls-1" d="m183.71,634.5c-.13,2.72-.13,83.11.06,86.71.06,1.08,1.83,1.14,28.52,1.14h28.46v-11.95c0-26.75,2.78-31.05,19.86-31.05h5.31l-2.4,6.45c-1.33,3.61-4.74,12.9-7.59,20.74s-6.2,16.95-7.4,20.24-2.47,6.7-2.72,7.59c-2.59,7.97-8.73,23.34-9.17,22.96-.25-.32-.32-.19-.06.25.44.82.19,1.71-6.7,20.43-2.66,7.15-7.72,20.93-11.26,30.67s-7.84,21.57-9.61,26.25c-1.71,4.68-3.98,10.82-5,13.53s-1.77,5.12-1.64,5.19c.51.51,72.8.25,73.24-.19.25-.25,1.71-4.05,3.29-8.41,3.35-9.23,9.49-25.93,24.16-65.78,5.82-15.81,12.02-32.64,13.72-37.32,6.39-17.46,21.38-58.06,23.53-63.88l2.28-6.01v-40.79h-158.62l-.25,3.23Z"/>
</svg>